<svg xmlns="http://www.w3.org/2000/svg" viewBox="0 0 520 150" role="img" aria-label="Waste2Light logo"><rect width="520" height="150" fill="#fff"/><g transform="translate(22 12)" fill="none" stroke="#174f2d" stroke-width="6" stroke-linecap="round" stroke-linejoin="round"><path d="M46 7v68"/><path d="M46 7c-2 28-8 39-18 48"/><path d="M46 7c2 28 8 39 18 48"/><path d="M46 7c-8 20-18 25-29 25"/><path d="M46 7c8 20 18 25 29 25"/><path d="M24 91c0-19 10-31 22-31s22 12 22 31"/><path d="M31 92h30M34 105h24M39 118h14"/></g><text x="112" y="78" font-family="Arial, Helvetica, sans-serif" font-size="48" font-weight="700" fill="#174f2d">Waste2Light</text><text x="116" y="111" font-family="Arial, Helvetica, sans-serif" font-size="18" font-weight="600" fill="#174f2d">Lighting Tomorrow with Today’s Waste</text></svg>